solid CATIA STL
  facet normal  -0.000000e+000  0.000000e+000  1.000000e+000
    outer loop
      vertex  1.438277e-001 -2.632748e-001  5.000000e+001
      vertex -8.446186e-002 -2.878649e-001  5.000000e+001
      vertex -2.252316e-001 -7.676397e-001  5.000000e+001
    endloop
  endfacet
  facet normal  0.000000e+000  0.000000e+000  1.000000e+000
    outer loop
      vertex  1.438277e-001 -2.632748e-001  5.000000e+001
      vertex -2.252316e-001 -7.676397e-001  5.000000e+001
      vertex  3.835404e-001 -7.020661e-001  5.000000e+001
    endloop
  endfacet
  facet normal  0.000000e+000  -0.000000e+000  1.000000e+000
    outer loop
      vertex  1.438277e-001 -2.632748e-001  5.000000e+001
      vertex  3.835404e-001 -7.020661e-001  5.000000e+001
      vertex  7.676397e-001 -2.252316e-001  5.000000e+001
    endloop
  endfacet
  facet normal  0.000000e+000  0.000000e+000  1.000000e+000
    outer loop
      vertex  1.438277e-001 -2.632748e-001  5.000000e+001
      vertex  7.676397e-001 -2.252316e-001  5.000000e+001
      vertex  2.878649e-001 -8.446186e-002  5.000000e+001
    endloop
  endfacet
  facet normal  0.000000e+000  0.000000e+000  1.000000e+000
    outer loop
      vertex -3.835404e-001  7.020661e-001  5.000000e+001
      vertex -7.676397e-001  2.252316e-001  5.000000e+001
      vertex -1.438277e-001  2.632748e-001  5.000000e+001
    endloop
  endfacet
  facet normal  0.000000e+000  -0.000000e+000  1.000000e+000
    outer loop
      vertex -3.835404e-001  7.020661e-001  5.000000e+001
      vertex -1.438277e-001  2.632748e-001  5.000000e+001
      vertex  8.446186e-002  2.878649e-001  5.000000e+001
    endloop
  endfacet
  facet normal  0.000000e+000  -0.000000e+000  1.000000e+000
    outer loop
      vertex -3.835404e-001  7.020661e-001  5.000000e+001
      vertex  8.446186e-002  2.878649e-001  5.000000e+001
      vertex  7.020661e-001  3.835404e-001  5.000000e+001
    endloop
  endfacet
  facet normal  0.000000e+000  0.000000e+000  1.000000e+000
    outer loop
      vertex -3.835404e-001  7.020661e-001  5.000000e+001
      vertex  7.020661e-001  3.835404e-001  5.000000e+001
      vertex  2.252316e-001  7.676397e-001  5.000000e+001
    endloop
  endfacet
  facet normal  0.000000e+000  0.000000e+000  1.000000e+000
    outer loop
      vertex -2.252316e-001 -7.676397e-001  5.000000e+001
      vertex -8.446186e-002 -2.878649e-001  5.000000e+001
      vertex -7.020661e-001 -3.835404e-001  5.000000e+001
    endloop
  endfacet
  facet normal  0.000000e+000  0.000000e+000  1.000000e+000
    outer loop
      vertex -7.020661e-001 -3.835404e-001  5.000000e+001
      vertex -8.446186e-002 -2.878649e-001  5.000000e+001
      vertex -2.632748e-001 -1.438277e-001  5.000000e+001
    endloop
  endfacet
  facet normal  0.000000e+000  0.000000e+000  1.000000e+000
    outer loop
      vertex -7.020661e-001 -3.835404e-001  5.000000e+001
      vertex -2.632748e-001 -1.438277e-001  5.000000e+001
      vertex -7.676397e-001  2.252316e-001  5.000000e+001
    endloop
  endfacet
  facet normal  0.000000e+000  0.000000e+000  1.000000e+000
    outer loop
      vertex -7.676397e-001  2.252316e-001  5.000000e+001
      vertex -2.632748e-001 -1.438277e-001  5.000000e+001
      vertex -2.878649e-001  8.446186e-002  5.000000e+001
    endloop
  endfacet
  facet normal  0.000000e+000  -0.000000e+000  1.000000e+000
    outer loop
      vertex -7.676397e-001  2.252316e-001  5.000000e+001
      vertex -2.878649e-001  8.446186e-002  5.000000e+001
      vertex -1.438277e-001  2.632748e-001  5.000000e+001
    endloop
  endfacet
  facet normal  0.000000e+000  0.000000e+000  1.000000e+000
    outer loop
      vertex  2.878649e-001 -8.446186e-002  5.000000e+001
      vertex  7.676397e-001 -2.252316e-001  5.000000e+001
      vertex  2.632748e-001  1.438277e-001  5.000000e+001
    endloop
  endfacet
  facet normal  -0.000000e+000  0.000000e+000  1.000000e+000
    outer loop
      vertex  2.632748e-001  1.438277e-001  5.000000e+001
      vertex  7.676397e-001 -2.252316e-001  5.000000e+001
      vertex  7.020661e-001  3.835404e-001  5.000000e+001
    endloop
  endfacet
  facet normal  0.000000e+000  0.000000e+000  1.000000e+000
    outer loop
      vertex  2.632748e-001  1.438277e-001  5.000000e+001
      vertex  7.020661e-001  3.835404e-001  5.000000e+001
      vertex  8.446186e-002  2.878649e-001  5.000000e+001
    endloop
  endfacet
  facet normal  0.000000e+000  0.000000e+000 -1.000000e+000
    outer loop
      vertex -1.677989e+000  3.071539e+000  0.000000e+000
      vertex  4.478834e-001  3.471225e+000  0.000000e+000
      vertex  3.839000e-001  2.975335e+000  0.000000e+000
    endloop
  endfacet
  facet normal  -0.000000e+000  0.000000e+000 -9.999999e-001
    outer loop
      vertex -1.677989e+000  3.071539e+000  0.000000e+000
      vertex  3.839000e-001  2.975335e+000  0.000000e+000
      vertex -1.438277e+000  2.632748e+000  0.000000e+000
    endloop
  endfacet
  facet normal  -0.000000e+000  0.000000e+000 -1.000000e+000
    outer loop
      vertex -1.677989e+000  3.071539e+000  0.000000e+000
      vertex -1.438277e+000  2.632748e+000  0.000000e+000
      vertex -2.711081e+000  1.284540e+000  0.000000e+000
    endloop
  endfacet
  facet normal  0.000000e+000  0.000000e+000 -1.000000e+000
    outer loop
      vertex -1.677989e+000  3.071539e+000  0.000000e+000
      vertex -2.711081e+000  1.284540e+000  0.000000e+000
      vertex -3.162927e+000  1.498630e+000  0.000000e+000
    endloop
  endfacet
  facet normal  0.000000e+000  -0.000000e+000 -1.000000e+000
    outer loop
      vertex  1.677989e+000 -3.071539e+000  0.000000e+000
      vertex  2.711081e+000 -1.284540e+000  0.000000e+000
      vertex  3.162927e+000 -1.498630e+000  0.000000e+000
    endloop
  endfacet
  facet normal  0.000000e+000  0.000000e+000 -1.000000e+000
    outer loop
      vertex  3.162927e+000 -1.498630e+000  0.000000e+000
      vertex  2.711081e+000 -1.284540e+000  0.000000e+000
      vertex  2.948344e+000  5.543185e-001  0.000000e+000
    endloop
  endfacet
  facet normal  0.000000e+000  0.000000e+000 -1.000000e+000
    outer loop
      vertex  3.162927e+000 -1.498630e+000  0.000000e+000
      vertex  2.948344e+000  5.543185e-001  0.000000e+000
      vertex  3.439734e+000  6.467050e-001  0.000000e+000
    endloop
  endfacet
  facet normal  -0.000000e+000  0.000000e+000 -9.999999e-001
    outer loop
      vertex  3.439734e+000  6.467050e-001  0.000000e+000
      vertex  2.948344e+000  5.543185e-001  0.000000e+000
      vertex  2.059440e+000  2.181446e+000  0.000000e+000
    endloop
  endfacet
  facet normal  0.000000e+000  0.000000e+000 -1.000000e+000
    outer loop
      vertex  3.439734e+000  6.467050e-001  0.000000e+000
      vertex  2.059440e+000  2.181446e+000  0.000000e+000
      vertex  2.402680e+000  2.545021e+000  0.000000e+000
    endloop
  endfacet
  facet normal  -0.000000e+000  0.000000e+000 -1.000000e+000
    outer loop
      vertex  2.402680e+000  2.545021e+000  0.000000e+000
      vertex  2.059440e+000  2.181446e+000  0.000000e+000
      vertex  3.839000e-001  2.975335e+000  0.000000e+000
    endloop
  endfacet
  facet normal  0.000000e+000  0.000000e+000 -1.000000e+000
    outer loop
      vertex  2.402680e+000  2.545021e+000  0.000000e+000
      vertex  3.839000e-001  2.975335e+000  0.000000e+000
      vertex  4.478834e-001  3.471225e+000  0.000000e+000
    endloop
  endfacet
  facet normal  0.000000e+000  0.000000e+000 -9.999999e-001
    outer loop
      vertex  2.711081e+000 -1.284540e+000  0.000000e+000
      vertex  1.677989e+000 -3.071539e+000  0.000000e+000
      vertex  1.438277e+000 -2.632748e+000  0.000000e+000
    endloop
  endfacet
  facet normal  0.000000e+000  -0.000000e+000 -1.000000e+000
    outer loop
      vertex  1.438277e+000 -2.632748e+000  0.000000e+000
      vertex  1.677989e+000 -3.071539e+000  0.000000e+000
      vertex -4.478834e-001 -3.471225e+000  0.000000e+000
    endloop
  endfacet
  facet normal  0.000000e+000  0.000000e+000 -1.000000e+000
    outer loop
      vertex  1.438277e+000 -2.632748e+000  0.000000e+000
      vertex -4.478834e-001 -3.471225e+000  0.000000e+000
      vertex -3.839000e-001 -2.975335e+000  0.000000e+000
    endloop
  endfacet
  facet normal  -0.000000e+000  0.000000e+000 -1.000000e+000
    outer loop
      vertex -3.839000e-001 -2.975335e+000  0.000000e+000
      vertex -4.478834e-001 -3.471225e+000  0.000000e+000
      vertex -2.402680e+000 -2.545021e+000  0.000000e+000
    endloop
  endfacet
  facet normal  0.000000e+000  0.000000e+000 -1.000000e+000
    outer loop
      vertex -3.839000e-001 -2.975335e+000  0.000000e+000
      vertex -2.402680e+000 -2.545021e+000  0.000000e+000
      vertex -2.059440e+000 -2.181446e+000  0.000000e+000
    endloop
  endfacet
  facet normal  -0.000000e+000  0.000000e+000 -1.000000e+000
    outer loop
      vertex -2.059440e+000 -2.181446e+000  0.000000e+000
      vertex -2.402680e+000 -2.545021e+000  0.000000e+000
      vertex -3.439734e+000 -6.467050e-001  0.000000e+000
    endloop
  endfacet
  facet normal  0.000000e+000  0.000000e+000 -9.999999e-001
    outer loop
      vertex -2.059440e+000 -2.181446e+000  0.000000e+000
      vertex -3.439734e+000 -6.467050e-001  0.000000e+000
      vertex -2.948344e+000 -5.543185e-001  0.000000e+000
    endloop
  endfacet
  facet normal  -0.000000e+000  0.000000e+000 -1.000000e+000
    outer loop
      vertex -2.948344e+000 -5.543185e-001  0.000000e+000
      vertex -3.439734e+000 -6.467050e-001  0.000000e+000
      vertex -3.162927e+000  1.498630e+000  0.000000e+000
    endloop
  endfacet
  facet normal  0.000000e+000  0.000000e+000 -1.000000e+000
    outer loop
      vertex -2.948344e+000 -5.543185e-001  0.000000e+000
      vertex -3.162927e+000  1.498630e+000  0.000000e+000
      vertex -2.711081e+000  1.284540e+000  0.000000e+000
    endloop
  endfacet
  facet normal -7.776847e-001  6.264396e-001 -5.272551e-002
    outer loop
      vertex  2.878649e-001 -8.446186e-002  5.000000e+001
      vertex  2.711081e+000 -1.284540e+000  0.000000e+000
      vertex  1.438277e-001 -2.632748e-001  5.000000e+001
    endloop
  endfacet
  facet normal -7.261916e-001  6.855764e-001 -5.128946e-002
    outer loop
      vertex  2.711081e+000 -1.284540e+000  0.000000e+000
      vertex  1.438277e+000 -2.632748e+000  0.000000e+000
      vertex  1.438277e-001 -2.632748e-001  5.000000e+001
    endloop
  endfacet
  facet normal  1.845296e-001 -9.814878e-001 -5.128947e-002
    outer loop
      vertex -1.438277e+000  2.632748e+000  0.000000e+000
      vertex  3.839000e-001  2.975335e+000  0.000000e+000
      vertex -1.438277e-001  2.632748e-001  5.000000e+001
    endloop
  endfacet
  facet normal  1.069462e-001 -9.928658e-001 -5.272548e-002
    outer loop
      vertex  3.839000e-001  2.975335e+000  0.000000e+000
      vertex  8.446186e-002  2.878649e-001  5.000000e+001
      vertex -1.438277e-001  2.632748e-001  5.000000e+001
    endloop
  endfacet
  facet normal -4.276212e-001 -9.025142e-001 -5.107053e-002
    outer loop
      vertex  3.839000e-001  2.975335e+000  0.000000e+000
      vertex  2.059440e+000  2.181446e+000  0.000000e+000
      vertex  8.446186e-002  2.878649e-001  5.000000e+001
    endloop
  endfacet
  facet normal -8.764407e-001 -4.788018e-001 -5.099695e-002
    outer loop
      vertex  2.059440e+000  2.181446e+000  0.000000e+000
      vertex  2.948344e+000  5.543185e-001  0.000000e+000
      vertex  2.632748e-001  1.438277e-001  5.000000e+001
    endloop
  endfacet
  facet normal -6.263909e-001 -7.776231e-001 -5.419201e-002
    outer loop
      vertex  8.446186e-002  2.878649e-001  5.000000e+001
      vertex  2.059440e+000  2.181446e+000  0.000000e+000
      vertex  2.632748e-001  1.438277e-001  5.000000e+001
    endloop
  endfacet
  facet normal -9.904843e-001  1.277997e-001 -5.107053e-002
    outer loop
      vertex  2.948344e+000  5.543185e-001  0.000000e+000
      vertex  2.711081e+000 -1.284540e+000  0.000000e+000
      vertex  2.878649e-001 -8.446186e-002  5.000000e+001
    endloop
  endfacet
  facet normal -9.927878e-001 -1.069379e-001 -5.419202e-002
    outer loop
      vertex  2.632748e-001  1.438277e-001  5.000000e+001
      vertex  2.948344e+000  5.543185e-001  0.000000e+000
      vertex  2.878649e-001 -8.446186e-002  5.000000e+001
    endloop
  endfacet
  facet normal -1.845297e-001  9.814878e-001  5.128945e-002
    outer loop
      vertex -3.835404e-001  7.020661e-001  5.000000e+001
      vertex  4.478834e-001  3.471225e+000  0.000000e+000
      vertex -1.677989e+000  3.071539e+000  0.000000e+000
    endloop
  endfacet
  facet normal -1.069434e-001  9.928403e-001  5.320834e-002
    outer loop
      vertex -3.835404e-001  7.020661e-001  5.000000e+001
      vertex  2.252316e-001  7.676397e-001  5.000000e+001
      vertex  4.478834e-001  3.471225e+000  0.000000e+000
    endloop
  endfacet
  facet normal  7.776645e-001 -6.264239e-001  5.320833e-002
    outer loop
      vertex  3.835404e-001 -7.020661e-001  5.000000e+001
      vertex  3.162927e+000 -1.498630e+000  0.000000e+000
      vertex  7.676397e-001 -2.252316e-001  5.000000e+001
    endloop
  endfacet
  facet normal  7.261917e-001 -6.855764e-001  5.128946e-002
    outer loop
      vertex  3.835404e-001 -7.020661e-001  5.000000e+001
      vertex  1.677989e+000 -3.071539e+000  0.000000e+000
      vertex  3.162927e+000 -1.498630e+000  0.000000e+000
    endloop
  endfacet
  facet normal  4.276291e-001  9.025310e-001  5.070563e-002
    outer loop
      vertex  2.252316e-001  7.676397e-001  5.000000e+001
      vertex  2.402680e+000  2.545021e+000  0.000000e+000
      vertex  4.478834e-001  3.471225e+000  0.000000e+000
    endloop
  endfacet
  facet normal  8.764625e-001  4.788136e-001  5.050940e-002
    outer loop
      vertex  7.020661e-001  3.835404e-001  5.000000e+001
      vertex  3.439734e+000  6.467050e-001  0.000000e+000
      vertex  2.402680e+000  2.545021e+000  0.000000e+000
    endloop
  endfacet
  facet normal  6.263657e-001  7.775924e-001  5.491914e-002
    outer loop
      vertex  7.020661e-001  3.835404e-001  5.000000e+001
      vertex  2.402680e+000  2.545021e+000  0.000000e+000
      vertex  2.252316e-001  7.676397e-001  5.000000e+001
    endloop
  endfacet
  facet normal  9.905027e-001 -1.278021e-001  5.070563e-002
    outer loop
      vertex  7.676397e-001 -2.252316e-001  5.000000e+001
      vertex  3.162927e+000 -1.498630e+000  0.000000e+000
      vertex  3.439734e+000  6.467050e-001  0.000000e+000
    endloop
  endfacet
  facet normal  9.927482e-001  1.069336e-001  5.491913e-002
    outer loop
      vertex  7.676397e-001 -2.252316e-001  5.000000e+001
      vertex  3.439734e+000  6.467050e-001  0.000000e+000
      vertex  7.020661e-001  3.835404e-001  5.000000e+001
    endloop
  endfacet
  facet normal  7.776847e-001 -6.264396e-001 -5.272551e-002
    outer loop
      vertex -2.878649e-001  8.446186e-002  5.000000e+001
      vertex -2.711081e+000  1.284540e+000  0.000000e+000
      vertex -1.438277e-001  2.632748e-001  5.000000e+001
    endloop
  endfacet
  facet normal  7.261916e-001 -6.855764e-001 -5.128946e-002
    outer loop
      vertex -2.711081e+000  1.284540e+000  0.000000e+000
      vertex -1.438277e+000  2.632748e+000  0.000000e+000
      vertex -1.438277e-001  2.632748e-001  5.000000e+001
    endloop
  endfacet
  facet normal -1.845296e-001  9.814878e-001 -5.128947e-002
    outer loop
      vertex  1.438277e+000 -2.632748e+000  0.000000e+000
      vertex -3.839000e-001 -2.975335e+000  0.000000e+000
      vertex  1.438277e-001 -2.632748e-001  5.000000e+001
    endloop
  endfacet
  facet normal -1.069462e-001  9.928658e-001 -5.272548e-002
    outer loop
      vertex -3.839000e-001 -2.975335e+000  0.000000e+000
      vertex -8.446186e-002 -2.878649e-001  5.000000e+001
      vertex  1.438277e-001 -2.632748e-001  5.000000e+001
    endloop
  endfacet
  facet normal  4.276212e-001  9.025142e-001 -5.107053e-002
    outer loop
      vertex -3.839000e-001 -2.975335e+000  0.000000e+000
      vertex -2.059440e+000 -2.181446e+000  0.000000e+000
      vertex -8.446186e-002 -2.878649e-001  5.000000e+001
    endloop
  endfacet
  facet normal  8.764407e-001  4.788018e-001 -5.099695e-002
    outer loop
      vertex -2.059440e+000 -2.181446e+000  0.000000e+000
      vertex -2.948344e+000 -5.543185e-001  0.000000e+000
      vertex -2.632748e-001 -1.438277e-001  5.000000e+001
    endloop
  endfacet
  facet normal  6.263909e-001  7.776231e-001 -5.419201e-002
    outer loop
      vertex -8.446186e-002 -2.878649e-001  5.000000e+001
      vertex -2.059440e+000 -2.181446e+000  0.000000e+000
      vertex -2.632748e-001 -1.438277e-001  5.000000e+001
    endloop
  endfacet
  facet normal  9.904843e-001 -1.277997e-001 -5.107053e-002
    outer loop
      vertex -2.948344e+000 -5.543185e-001  0.000000e+000
      vertex -2.711081e+000  1.284540e+000  0.000000e+000
      vertex -2.878649e-001  8.446186e-002  5.000000e+001
    endloop
  endfacet
  facet normal  9.927878e-001  1.069379e-001 -5.419202e-002
    outer loop
      vertex -2.632748e-001 -1.438277e-001  5.000000e+001
      vertex -2.948344e+000 -5.543185e-001  0.000000e+000
      vertex -2.878649e-001  8.446186e-002  5.000000e+001
    endloop
  endfacet
  facet normal  1.845297e-001 -9.814878e-001  5.128945e-002
    outer loop
      vertex  3.835404e-001 -7.020661e-001  5.000000e+001
      vertex -4.478834e-001 -3.471225e+000  0.000000e+000
      vertex  1.677989e+000 -3.071539e+000  0.000000e+000
    endloop
  endfacet
  facet normal  1.069434e-001 -9.928403e-001  5.320834e-002
    outer loop
      vertex  3.835404e-001 -7.020661e-001  5.000000e+001
      vertex -2.252316e-001 -7.676397e-001  5.000000e+001
      vertex -4.478834e-001 -3.471225e+000  0.000000e+000
    endloop
  endfacet
  facet normal -7.776645e-001  6.264239e-001  5.320833e-002
    outer loop
      vertex -3.835404e-001  7.020661e-001  5.000000e+001
      vertex -3.162927e+000  1.498630e+000  0.000000e+000
      vertex -7.676397e-001  2.252316e-001  5.000000e+001
    endloop
  endfacet
  facet normal -7.261917e-001  6.855764e-001  5.128946e-002
    outer loop
      vertex -3.835404e-001  7.020661e-001  5.000000e+001
      vertex -1.677989e+000  3.071539e+000  0.000000e+000
      vertex -3.162927e+000  1.498630e+000  0.000000e+000
    endloop
  endfacet
  facet normal -4.276291e-001 -9.025310e-001  5.070563e-002
    outer loop
      vertex -2.252316e-001 -7.676397e-001  5.000000e+001
      vertex -2.402680e+000 -2.545021e+000  0.000000e+000
      vertex -4.478834e-001 -3.471225e+000  0.000000e+000
    endloop
  endfacet
  facet normal -8.764625e-001 -4.788136e-001  5.050940e-002
    outer loop
      vertex -7.020661e-001 -3.835404e-001  5.000000e+001
      vertex -3.439734e+000 -6.467050e-001  0.000000e+000
      vertex -2.402680e+000 -2.545021e+000  0.000000e+000
    endloop
  endfacet
  facet normal -6.263657e-001 -7.775924e-001  5.491914e-002
    outer loop
      vertex -7.020661e-001 -3.835404e-001  5.000000e+001
      vertex -2.402680e+000 -2.545021e+000  0.000000e+000
      vertex -2.252316e-001 -7.676397e-001  5.000000e+001
    endloop
  endfacet
  facet normal -9.905027e-001  1.278021e-001  5.070563e-002
    outer loop
      vertex -7.676397e-001  2.252316e-001  5.000000e+001
      vertex -3.162927e+000  1.498630e+000  0.000000e+000
      vertex -3.439734e+000 -6.467050e-001  0.000000e+000
    endloop
  endfacet
  facet normal -9.927482e-001 -1.069336e-001  5.491913e-002
    outer loop
      vertex -7.676397e-001  2.252316e-001  5.000000e+001
      vertex -3.439734e+000 -6.467050e-001  0.000000e+000
      vertex -7.020661e-001 -3.835404e-001  5.000000e+001
    endloop
  endfacet
endsolid CATIA STL
