solid CATIA STL
  facet normal  -0.000000e+000  0.000000e+000  1.000000e+000
    outer loop
      vertex  1.438277e-001 -2.632748e-001  3.000000e+001
      vertex -8.446186e-002 -2.878649e-001  3.000000e+001
      vertex -2.252316e-001 -7.676397e-001  3.000000e+001
    endloop
  endfacet
  facet normal  0.000000e+000  0.000000e+000  1.000000e+000
    outer loop
      vertex  1.438277e-001 -2.632748e-001  3.000000e+001
      vertex -2.252316e-001 -7.676397e-001  3.000000e+001
      vertex  3.835404e-001 -7.020661e-001  3.000000e+001
    endloop
  endfacet
  facet normal  0.000000e+000  -0.000000e+000  1.000000e+000
    outer loop
      vertex  1.438277e-001 -2.632748e-001  3.000000e+001
      vertex  3.835404e-001 -7.020661e-001  3.000000e+001
      vertex  7.676397e-001 -2.252316e-001  3.000000e+001
    endloop
  endfacet
  facet normal  0.000000e+000  0.000000e+000  1.000000e+000
    outer loop
      vertex  1.438277e-001 -2.632748e-001  3.000000e+001
      vertex  7.676397e-001 -2.252316e-001  3.000000e+001
      vertex  2.878649e-001 -8.446186e-002  3.000000e+001
    endloop
  endfacet
  facet normal  0.000000e+000  0.000000e+000  1.000000e+000
    outer loop
      vertex -3.835404e-001  7.020661e-001  3.000000e+001
      vertex -7.676397e-001  2.252316e-001  3.000000e+001
      vertex -1.438277e-001  2.632748e-001  3.000000e+001
    endloop
  endfacet
  facet normal  0.000000e+000  -0.000000e+000  1.000000e+000
    outer loop
      vertex -3.835404e-001  7.020661e-001  3.000000e+001
      vertex -1.438277e-001  2.632748e-001  3.000000e+001
      vertex  8.446186e-002  2.878649e-001  3.000000e+001
    endloop
  endfacet
  facet normal  0.000000e+000  -0.000000e+000  1.000000e+000
    outer loop
      vertex -3.835404e-001  7.020661e-001  3.000000e+001
      vertex  8.446186e-002  2.878649e-001  3.000000e+001
      vertex  7.020661e-001  3.835404e-001  3.000000e+001
    endloop
  endfacet
  facet normal  0.000000e+000  0.000000e+000  1.000000e+000
    outer loop
      vertex -3.835404e-001  7.020661e-001  3.000000e+001
      vertex  7.020661e-001  3.835404e-001  3.000000e+001
      vertex  2.252316e-001  7.676397e-001  3.000000e+001
    endloop
  endfacet
  facet normal  0.000000e+000  0.000000e+000  1.000000e+000
    outer loop
      vertex -2.252316e-001 -7.676397e-001  3.000000e+001
      vertex -8.446186e-002 -2.878649e-001  3.000000e+001
      vertex -7.020661e-001 -3.835404e-001  3.000000e+001
    endloop
  endfacet
  facet normal  0.000000e+000  0.000000e+000  1.000000e+000
    outer loop
      vertex -7.020661e-001 -3.835404e-001  3.000000e+001
      vertex -8.446186e-002 -2.878649e-001  3.000000e+001
      vertex -2.632748e-001 -1.438277e-001  3.000000e+001
    endloop
  endfacet
  facet normal  0.000000e+000  0.000000e+000  1.000000e+000
    outer loop
      vertex -7.020661e-001 -3.835404e-001  3.000000e+001
      vertex -2.632748e-001 -1.438277e-001  3.000000e+001
      vertex -7.676397e-001  2.252316e-001  3.000000e+001
    endloop
  endfacet
  facet normal  0.000000e+000  0.000000e+000  1.000000e+000
    outer loop
      vertex -7.676397e-001  2.252316e-001  3.000000e+001
      vertex -2.632748e-001 -1.438277e-001  3.000000e+001
      vertex -2.878649e-001  8.446186e-002  3.000000e+001
    endloop
  endfacet
  facet normal  0.000000e+000  -0.000000e+000  1.000000e+000
    outer loop
      vertex -7.676397e-001  2.252316e-001  3.000000e+001
      vertex -2.878649e-001  8.446186e-002  3.000000e+001
      vertex -1.438277e-001  2.632748e-001  3.000000e+001
    endloop
  endfacet
  facet normal  0.000000e+000  0.000000e+000  1.000000e+000
    outer loop
      vertex  2.878649e-001 -8.446186e-002  3.000000e+001
      vertex  7.676397e-001 -2.252316e-001  3.000000e+001
      vertex  2.632748e-001  1.438277e-001  3.000000e+001
    endloop
  endfacet
  facet normal  -0.000000e+000  0.000000e+000  1.000000e+000
    outer loop
      vertex  2.632748e-001  1.438277e-001  3.000000e+001
      vertex  7.676397e-001 -2.252316e-001  3.000000e+001
      vertex  7.020661e-001  3.835404e-001  3.000000e+001
    endloop
  endfacet
  facet normal  0.000000e+000  0.000000e+000  1.000000e+000
    outer loop
      vertex  2.632748e-001  1.438277e-001  3.000000e+001
      vertex  7.020661e-001  3.835404e-001  3.000000e+001
      vertex  8.446186e-002  2.878649e-001  3.000000e+001
    endloop
  endfacet
  facet normal  0.000000e+000  0.000000e+000 -9.999999e-001
    outer loop
      vertex -9.588511e-001  1.755165e+000  0.000000e+000
      vertex  5.630791e-001  1.919099e+000  0.000000e+000
      vertex  4.223093e-001  1.439324e+000  0.000000e+000
    endloop
  endfacet
  facet normal  -0.000000e+000  0.000000e+000 -1.000000e+000
    outer loop
      vertex -9.588511e-001  1.755165e+000  0.000000e+000
      vertex  4.223093e-001  1.439324e+000  0.000000e+000
      vertex -7.191383e-001  1.316374e+000  0.000000e+000
    endloop
  endfacet
  facet normal  -0.000000e+000  0.000000e+000 -1.000000e+000
    outer loop
      vertex -9.588511e-001  1.755165e+000  0.000000e+000
      vertex -7.191383e-001  1.316374e+000  0.000000e+000
      vertex -1.439324e+000  4.223093e-001  0.000000e+000
    endloop
  endfacet
  facet normal  0.000000e+000  0.000000e+000 -9.999999e-001
    outer loop
      vertex -9.588511e-001  1.755165e+000  0.000000e+000
      vertex -1.439324e+000  4.223093e-001  0.000000e+000
      vertex -1.919099e+000  5.630791e-001  0.000000e+000
    endloop
  endfacet
  facet normal  0.000000e+000  -0.000000e+000 -9.999999e-001
    outer loop
      vertex  9.588511e-001 -1.755165e+000  0.000000e+000
      vertex  1.439324e+000 -4.223093e-001  0.000000e+000
      vertex  1.919099e+000 -5.630791e-001  0.000000e+000
    endloop
  endfacet
  facet normal  0.000000e+000  0.000000e+000 -1.000000e+000
    outer loop
      vertex  1.919099e+000 -5.630791e-001  0.000000e+000
      vertex  1.439324e+000 -4.223093e-001  0.000000e+000
      vertex  1.316374e+000  7.191383e-001  0.000000e+000
    endloop
  endfacet
  facet normal  0.000000e+000  0.000000e+000 -9.999999e-001
    outer loop
      vertex  1.919099e+000 -5.630791e-001  0.000000e+000
      vertex  1.316374e+000  7.191383e-001  0.000000e+000
      vertex  1.755165e+000  9.588511e-001  0.000000e+000
    endloop
  endfacet
  facet normal  -0.000000e+000  0.000000e+000 -1.000000e+000
    outer loop
      vertex  1.755165e+000  9.588511e-001  0.000000e+000
      vertex  1.316374e+000  7.191383e-001  0.000000e+000
      vertex  4.223093e-001  1.439324e+000  0.000000e+000
    endloop
  endfacet
  facet normal  0.000000e+000  0.000000e+000 -9.999999e-001
    outer loop
      vertex  1.755165e+000  9.588511e-001  0.000000e+000
      vertex  4.223093e-001  1.439324e+000  0.000000e+000
      vertex  5.630791e-001  1.919099e+000  0.000000e+000
    endloop
  endfacet
  facet normal  0.000000e+000  0.000000e+000 -1.000000e+000
    outer loop
      vertex  1.439324e+000 -4.223093e-001  0.000000e+000
      vertex  9.588511e-001 -1.755165e+000  0.000000e+000
      vertex  7.191383e-001 -1.316374e+000  0.000000e+000
    endloop
  endfacet
  facet normal  0.000000e+000  -0.000000e+000 -9.999999e-001
    outer loop
      vertex  7.191383e-001 -1.316374e+000  0.000000e+000
      vertex  9.588511e-001 -1.755165e+000  0.000000e+000
      vertex -5.630791e-001 -1.919099e+000  0.000000e+000
    endloop
  endfacet
  facet normal  0.000000e+000  0.000000e+000 -1.000000e+000
    outer loop
      vertex  7.191383e-001 -1.316374e+000  0.000000e+000
      vertex -5.630791e-001 -1.919099e+000  0.000000e+000
      vertex -4.223093e-001 -1.439324e+000  0.000000e+000
    endloop
  endfacet
  facet normal  -0.000000e+000  0.000000e+000 -9.999999e-001
    outer loop
      vertex -4.223093e-001 -1.439324e+000  0.000000e+000
      vertex -5.630791e-001 -1.919099e+000  0.000000e+000
      vertex -1.755165e+000 -9.588511e-001  0.000000e+000
    endloop
  endfacet
  facet normal  0.000000e+000  0.000000e+000 -1.000000e+000
    outer loop
      vertex -4.223093e-001 -1.439324e+000  0.000000e+000
      vertex -1.755165e+000 -9.588511e-001  0.000000e+000
      vertex -1.316374e+000 -7.191383e-001  0.000000e+000
    endloop
  endfacet
  facet normal  -0.000000e+000  0.000000e+000 -9.999999e-001
    outer loop
      vertex -1.316374e+000 -7.191383e-001  0.000000e+000
      vertex -1.755165e+000 -9.588511e-001  0.000000e+000
      vertex -1.919099e+000  5.630791e-001  0.000000e+000
    endloop
  endfacet
  facet normal  0.000000e+000  0.000000e+000 -1.000000e+000
    outer loop
      vertex -1.316374e+000 -7.191383e-001  0.000000e+000
      vertex -1.919099e+000  5.630791e-001  0.000000e+000
      vertex -1.439324e+000  4.223093e-001  0.000000e+000
    endloop
  endfacet
  facet normal -6.268845e-001 -7.782365e-001 -3.692997e-002
    outer loop
      vertex  1.316374e+000  7.191383e-001  0.000000e+000
      vertex  8.446186e-002  2.878649e-001  3.000000e+001
      vertex  4.223093e-001  1.439324e+000  0.000000e+000
    endloop
  endfacet
  facet normal  1.070218e-001 -9.935706e-001 -3.692998e-002
    outer loop
      vertex  4.223093e-001  1.439324e+000  0.000000e+000
      vertex  8.446186e-002  2.878649e-001  3.000000e+001
      vertex -1.438277e-001  2.632748e-001  3.000000e+001
    endloop
  endfacet
  facet normal  1.070221e-001 -9.935705e-001 -3.692997e-002
    outer loop
      vertex  4.223093e-001  1.439324e+000  0.000000e+000
      vertex -1.438277e-001  2.632748e-001  3.000000e+001
      vertex -7.191383e-001  1.316374e+000  0.000000e+000
    endloop
  endfacet
  facet normal -6.268844e-001 -7.782366e-001 -3.692998e-002
    outer loop
      vertex  8.446186e-002  2.878649e-001  3.000000e+001
      vertex  1.316374e+000  7.191383e-001  0.000000e+000
      vertex  2.632748e-001  1.438277e-001  3.000000e+001
    endloop
  endfacet
  facet normal -9.935705e-001 -1.070221e-001 -3.692997e-002
    outer loop
      vertex  2.632748e-001  1.438277e-001  3.000000e+001
      vertex  1.316374e+000  7.191383e-001  0.000000e+000
      vertex  1.439324e+000 -4.223093e-001  0.000000e+000
    endloop
  endfacet
  facet normal -9.935706e-001 -1.070218e-001 -3.692998e-002
    outer loop
      vertex  2.632748e-001  1.438277e-001  3.000000e+001
      vertex  1.439324e+000 -4.223093e-001  0.000000e+000
      vertex  2.878649e-001 -8.446186e-002  3.000000e+001
    endloop
  endfacet
  facet normal -7.782365e-001  6.268845e-001 -3.692997e-002
    outer loop
      vertex  2.878649e-001 -8.446186e-002  3.000000e+001
      vertex  1.439324e+000 -4.223093e-001  0.000000e+000
      vertex  7.191383e-001 -1.316374e+000  0.000000e+000
    endloop
  endfacet
  facet normal -7.782366e-001  6.268844e-001 -3.692998e-002
    outer loop
      vertex  2.878649e-001 -8.446186e-002  3.000000e+001
      vertex  7.191383e-001 -1.316374e+000  0.000000e+000
      vertex  1.438277e-001 -2.632748e-001  3.000000e+001
    endloop
  endfacet
  facet normal -1.070220e-001  9.935706e-001  3.692997e-002
    outer loop
      vertex -9.588511e-001  1.755165e+000  0.000000e+000
      vertex -3.835404e-001  7.020661e-001  3.000000e+001
      vertex  5.630791e-001  1.919099e+000  0.000000e+000
    endloop
  endfacet
  facet normal -1.070220e-001  9.935706e-001  3.692997e-002
    outer loop
      vertex  5.630791e-001  1.919099e+000  0.000000e+000
      vertex -3.835404e-001  7.020661e-001  3.000000e+001
      vertex  2.252316e-001  7.676397e-001  3.000000e+001
    endloop
  endfacet
  facet normal  6.268844e-001  7.782365e-001  3.692997e-002
    outer loop
      vertex  5.630791e-001  1.919099e+000  0.000000e+000
      vertex  2.252316e-001  7.676397e-001  3.000000e+001
      vertex  1.755165e+000  9.588511e-001  0.000000e+000
    endloop
  endfacet
  facet normal  6.268846e-001  7.782365e-001  3.692998e-002
    outer loop
      vertex  1.755165e+000  9.588511e-001  0.000000e+000
      vertex  2.252316e-001  7.676397e-001  3.000000e+001
      vertex  7.020661e-001  3.835404e-001  3.000000e+001
    endloop
  endfacet
  facet normal  9.935706e-001  1.070220e-001  3.692997e-002
    outer loop
      vertex  1.755165e+000  9.588511e-001  0.000000e+000
      vertex  7.020661e-001  3.835404e-001  3.000000e+001
      vertex  1.919099e+000 -5.630791e-001  0.000000e+000
    endloop
  endfacet
  facet normal  9.935706e-001  1.070220e-001  3.692997e-002
    outer loop
      vertex  1.919099e+000 -5.630791e-001  0.000000e+000
      vertex  7.020661e-001  3.835404e-001  3.000000e+001
      vertex  7.676397e-001 -2.252316e-001  3.000000e+001
    endloop
  endfacet
  facet normal  7.782365e-001 -6.268844e-001  3.692997e-002
    outer loop
      vertex  1.919099e+000 -5.630791e-001  0.000000e+000
      vertex  7.676397e-001 -2.252316e-001  3.000000e+001
      vertex  9.588511e-001 -1.755165e+000  0.000000e+000
    endloop
  endfacet
  facet normal  7.782365e-001 -6.268846e-001  3.692998e-002
    outer loop
      vertex  9.588511e-001 -1.755165e+000  0.000000e+000
      vertex  7.676397e-001 -2.252316e-001  3.000000e+001
      vertex  3.835404e-001 -7.020661e-001  3.000000e+001
    endloop
  endfacet
  facet normal  6.268845e-001  7.782365e-001 -3.692997e-002
    outer loop
      vertex -1.316374e+000 -7.191383e-001  0.000000e+000
      vertex -8.446186e-002 -2.878649e-001  3.000000e+001
      vertex -4.223093e-001 -1.439324e+000  0.000000e+000
    endloop
  endfacet
  facet normal -1.070218e-001  9.935706e-001 -3.692998e-002
    outer loop
      vertex -4.223093e-001 -1.439324e+000  0.000000e+000
      vertex -8.446186e-002 -2.878649e-001  3.000000e+001
      vertex  1.438277e-001 -2.632748e-001  3.000000e+001
    endloop
  endfacet
  facet normal -1.070221e-001  9.935705e-001 -3.692997e-002
    outer loop
      vertex -4.223093e-001 -1.439324e+000  0.000000e+000
      vertex  1.438277e-001 -2.632748e-001  3.000000e+001
      vertex  7.191383e-001 -1.316374e+000  0.000000e+000
    endloop
  endfacet
  facet normal  6.268844e-001  7.782366e-001 -3.692998e-002
    outer loop
      vertex -8.446186e-002 -2.878649e-001  3.000000e+001
      vertex -1.316374e+000 -7.191383e-001  0.000000e+000
      vertex -2.632748e-001 -1.438277e-001  3.000000e+001
    endloop
  endfacet
  facet normal  9.935705e-001  1.070221e-001 -3.692997e-002
    outer loop
      vertex -2.632748e-001 -1.438277e-001  3.000000e+001
      vertex -1.316374e+000 -7.191383e-001  0.000000e+000
      vertex -1.439324e+000  4.223093e-001  0.000000e+000
    endloop
  endfacet
  facet normal  9.935706e-001  1.070218e-001 -3.692998e-002
    outer loop
      vertex -2.632748e-001 -1.438277e-001  3.000000e+001
      vertex -1.439324e+000  4.223093e-001  0.000000e+000
      vertex -2.878649e-001  8.446186e-002  3.000000e+001
    endloop
  endfacet
  facet normal  7.782365e-001 -6.268845e-001 -3.692997e-002
    outer loop
      vertex -2.878649e-001  8.446186e-002  3.000000e+001
      vertex -1.439324e+000  4.223093e-001  0.000000e+000
      vertex -7.191383e-001  1.316374e+000  0.000000e+000
    endloop
  endfacet
  facet normal  7.782366e-001 -6.268844e-001 -3.692998e-002
    outer loop
      vertex -2.878649e-001  8.446186e-002  3.000000e+001
      vertex -7.191383e-001  1.316374e+000  0.000000e+000
      vertex -1.438277e-001  2.632748e-001  3.000000e+001
    endloop
  endfacet
  facet normal  1.070220e-001 -9.935706e-001  3.692997e-002
    outer loop
      vertex  9.588511e-001 -1.755165e+000  0.000000e+000
      vertex  3.835404e-001 -7.020661e-001  3.000000e+001
      vertex -5.630791e-001 -1.919099e+000  0.000000e+000
    endloop
  endfacet
  facet normal  1.070220e-001 -9.935706e-001  3.692997e-002
    outer loop
      vertex -5.630791e-001 -1.919099e+000  0.000000e+000
      vertex  3.835404e-001 -7.020661e-001  3.000000e+001
      vertex -2.252316e-001 -7.676397e-001  3.000000e+001
    endloop
  endfacet
  facet normal -6.268844e-001 -7.782365e-001  3.692997e-002
    outer loop
      vertex -5.630791e-001 -1.919099e+000  0.000000e+000
      vertex -2.252316e-001 -7.676397e-001  3.000000e+001
      vertex -1.755165e+000 -9.588511e-001  0.000000e+000
    endloop
  endfacet
  facet normal -6.268846e-001 -7.782365e-001  3.692998e-002
    outer loop
      vertex -1.755165e+000 -9.588511e-001  0.000000e+000
      vertex -2.252316e-001 -7.676397e-001  3.000000e+001
      vertex -7.020661e-001 -3.835404e-001  3.000000e+001
    endloop
  endfacet
  facet normal -9.935706e-001 -1.070220e-001  3.692997e-002
    outer loop
      vertex -1.755165e+000 -9.588511e-001  0.000000e+000
      vertex -7.020661e-001 -3.835404e-001  3.000000e+001
      vertex -1.919099e+000  5.630791e-001  0.000000e+000
    endloop
  endfacet
  facet normal -9.935706e-001 -1.070220e-001  3.692997e-002
    outer loop
      vertex -1.919099e+000  5.630791e-001  0.000000e+000
      vertex -7.020661e-001 -3.835404e-001  3.000000e+001
      vertex -7.676397e-001  2.252316e-001  3.000000e+001
    endloop
  endfacet
  facet normal -7.782365e-001  6.268844e-001  3.692997e-002
    outer loop
      vertex -1.919099e+000  5.630791e-001  0.000000e+000
      vertex -7.676397e-001  2.252316e-001  3.000000e+001
      vertex -9.588511e-001  1.755165e+000  0.000000e+000
    endloop
  endfacet
  facet normal -7.782365e-001  6.268846e-001  3.692998e-002
    outer loop
      vertex -9.588511e-001  1.755165e+000  0.000000e+000
      vertex -7.676397e-001  2.252316e-001  3.000000e+001
      vertex -3.835404e-001  7.020661e-001  3.000000e+001
    endloop
  endfacet
endsolid CATIA STL
