solid CATIA STL
  facet normal  -0.000000e+000  0.000000e+000  9.999999e-001
    outer loop
      vertex -4.387913e-001 -2.397128e-001  8.500000e+001
      vertex -8.775826e-001 -4.794255e-001  8.500000e+001
      vertex -1.407698e-001 -4.797748e-001  8.500000e+001
    endloop
  endfacet
  facet normal  0.000000e+000  0.000000e+000  9.999999e-001
    outer loop
      vertex -1.407698e-001 -4.797748e-001  8.500000e+001
      vertex -8.775826e-001 -4.794255e-001  8.500000e+001
      vertex -2.815395e-001 -9.595496e-001  8.500000e+001
    endloop
  endfacet
  facet normal  0.000000e+000  0.000000e+000  9.999999e-001
    outer loop
      vertex -1.407698e-001 -4.797748e-001  8.500000e+001
      vertex -2.815395e-001 -9.595496e-001  8.500000e+001
      vertex  2.397128e-001 -4.387913e-001  8.500000e+001
    endloop
  endfacet
  facet normal  0.000000e+000  0.000000e+000  9.999999e-001
    outer loop
      vertex  2.397128e-001 -4.387913e-001  8.500000e+001
      vertex -2.815395e-001 -9.595496e-001  8.500000e+001
      vertex  4.794255e-001 -8.775826e-001  8.500000e+001
    endloop
  endfacet
  facet normal  0.000000e+000  -0.000000e+000  9.999999e-001
    outer loop
      vertex  2.397128e-001 -4.387913e-001  8.500000e+001
      vertex  4.794255e-001 -8.775826e-001  8.500000e+001
      vertex  4.797748e-001 -1.407698e-001  8.500000e+001
    endloop
  endfacet
  facet normal  0.000000e+000  0.000000e+000  9.999999e-001
    outer loop
      vertex  4.797748e-001 -1.407698e-001  8.500000e+001
      vertex  4.794255e-001 -8.775826e-001  8.500000e+001
      vertex  9.595496e-001 -2.815395e-001  8.500000e+001
    endloop
  endfacet
  facet normal  0.000000e+000  0.000000e+000  9.999999e-001
    outer loop
      vertex  4.797748e-001 -1.407698e-001  8.500000e+001
      vertex  9.595496e-001 -2.815395e-001  8.500000e+001
      vertex  4.387913e-001  2.397128e-001  8.500000e+001
    endloop
  endfacet
  facet normal  -0.000000e+000  0.000000e+000  9.999999e-001
    outer loop
      vertex  4.387913e-001  2.397128e-001  8.500000e+001
      vertex  9.595496e-001 -2.815395e-001  8.500000e+001
      vertex  8.775826e-001  4.794255e-001  8.500000e+001
    endloop
  endfacet
  facet normal  0.000000e+000  0.000000e+000  9.999999e-001
    outer loop
      vertex  4.387913e-001  2.397128e-001  8.500000e+001
      vertex  8.775826e-001  4.794255e-001  8.500000e+001
      vertex  1.407698e-001  4.797748e-001  8.500000e+001
    endloop
  endfacet
  facet normal  0.000000e+000  0.000000e+000  9.999999e-001
    outer loop
      vertex  8.775826e-001  4.794255e-001  8.500000e+001
      vertex  2.815395e-001  9.595496e-001  8.500000e+001
      vertex  1.407698e-001  4.797748e-001  8.500000e+001
    endloop
  endfacet
  facet normal  0.000000e+000  -0.000000e+000  9.999999e-001
    outer loop
      vertex  1.407698e-001  4.797748e-001  8.500000e+001
      vertex  2.815395e-001  9.595496e-001  8.500000e+001
      vertex -4.794255e-001  8.775826e-001  8.500000e+001
    endloop
  endfacet
  facet normal  0.000000e+000  0.000000e+000  9.999999e-001
    outer loop
      vertex  1.407698e-001  4.797748e-001  8.500000e+001
      vertex -4.794255e-001  8.775826e-001  8.500000e+001
      vertex -2.397128e-001  4.387913e-001  8.500000e+001
    endloop
  endfacet
  facet normal  0.000000e+000  0.000000e+000  9.999999e-001
    outer loop
      vertex -8.775826e-001 -4.794255e-001  8.500000e+001
      vertex -4.387913e-001 -2.397128e-001  8.500000e+001
      vertex -9.595496e-001  2.815395e-001  8.500000e+001
    endloop
  endfacet
  facet normal  0.000000e+000  0.000000e+000  9.999999e-001
    outer loop
      vertex -9.595496e-001  2.815395e-001  8.500000e+001
      vertex -4.387913e-001 -2.397128e-001  8.500000e+001
      vertex -4.797748e-001  1.407698e-001  8.500000e+001
    endloop
  endfacet
  facet normal  0.000000e+000  -0.000000e+000  9.999999e-001
    outer loop
      vertex -9.595496e-001  2.815395e-001  8.500000e+001
      vertex -4.797748e-001  1.407698e-001  8.500000e+001
      vertex -4.794255e-001  8.775826e-001  8.500000e+001
    endloop
  endfacet
  facet normal  0.000000e+000  0.000000e+000  9.999999e-001
    outer loop
      vertex -4.794255e-001  8.775826e-001  8.500000e+001
      vertex -4.797748e-001  1.407698e-001  8.500000e+001
      vertex -2.397128e-001  4.387913e-001  8.500000e+001
    endloop
  endfacet
  facet normal  -0.000000e+000  -0.000000e+000 -1.000000e+000
    outer loop
      vertex -3.949121e+000 -2.157415e+000 -1.421085e-014
      vertex -2.745920e+000 -2.908595e+000 -1.421085e-014
      vertex -2.341332e+000 -3.842937e+000 -1.421085e-014
    endloop
  endfacet
  facet normal  0.000000e+000  0.000000e+000 -1.000000e+000
    outer loop
      vertex -2.341332e+000 -3.842937e+000 -1.421085e-014
      vertex -2.745920e+000 -2.908595e+000 -1.421085e-014
      vertex -5.118667e-001 -3.967114e+000 -1.421085e-014
    endloop
  endfacet
  facet normal  -0.000000e+000  -0.000000e+000 -1.000000e+000
    outer loop
      vertex -2.341332e+000 -3.842937e+000 -1.421085e-014
      vertex -5.118667e-001 -3.967114e+000 -1.421085e-014
      vertex -1.061846e-001 -4.498747e+000 -1.421085e-014
    endloop
  endfacet
  facet normal  0.000000e+000  0.000000e+000 -1.000000e+000
    outer loop
      vertex -1.061846e-001 -4.498747e+000 -1.421085e-014
      vertex -5.118667e-001 -3.967114e+000 -1.421085e-014
      vertex  1.917702e+000 -3.510330e+000 -1.421085e-014
    endloop
  endfacet
  facet normal  0.000000e+000  -0.000000e+000 -1.000000e+000
    outer loop
      vertex -1.061846e-001 -4.498747e+000 -1.421085e-014
      vertex  1.917702e+000 -3.510330e+000 -1.421085e-014
      vertex  2.157415e+000 -3.949121e+000 -1.421085e-014
    endloop
  endfacet
  facet normal  0.000000e+000  0.000000e+000 -9.999999e-001
    outer loop
      vertex  2.157415e+000 -3.949121e+000 -1.421085e-014
      vertex  1.917702e+000 -3.510330e+000 -1.421085e-014
      vertex  3.614774e+000 -1.712720e+000 -1.421085e-014
    endloop
  endfacet
  facet normal  0.000000e+000  -0.000000e+000 -1.000000e+000
    outer loop
      vertex  2.157415e+000 -3.949121e+000 -1.421085e-014
      vertex  3.614774e+000 -1.712720e+000 -1.421085e-014
      vertex  3.842937e+000 -2.341332e+000 -1.421085e-014
    endloop
  endfacet
  facet normal  0.000000e+000  0.000000e+000 -1.000000e+000
    outer loop
      vertex  3.842937e+000 -2.341332e+000 -1.421085e-014
      vertex  3.614774e+000 -1.712720e+000 -1.421085e-014
      vertex  3.931125e+000  7.390915e-001 -1.421085e-014
    endloop
  endfacet
  facet normal  0.000000e+000  -0.000000e+000 -1.000000e+000
    outer loop
      vertex  3.842937e+000 -2.341332e+000 -1.421085e-014
      vertex  3.931125e+000  7.390915e-001 -1.421085e-014
      vertex  4.498747e+000 -1.061846e-001 -1.421085e-014
    endloop
  endfacet
  facet normal  0.000000e+000  0.000000e+000 -9.999999e-001
    outer loop
      vertex  4.498747e+000 -1.061846e-001 -1.421085e-014
      vertex  3.931125e+000  7.390915e-001 -1.421085e-014
      vertex  2.745920e+000  2.908595e+000 -1.421085e-014
    endloop
  endfacet
  facet normal  0.000000e+000  0.000000e+000 -1.000000e+000
    outer loop
      vertex  4.498747e+000 -1.061846e-001 -1.421085e-014
      vertex  2.745920e+000  2.908595e+000 -1.421085e-014
      vertex  3.949121e+000  2.157415e+000 -1.421085e-014
    endloop
  endfacet
  facet normal  0.000000e+000  0.000000e+000 -1.000000e+000
    outer loop
      vertex  3.949121e+000  2.157415e+000 -1.421085e-014
      vertex  2.745920e+000  2.908595e+000 -1.421085e-014
      vertex  2.341332e+000  3.842937e+000 -1.421085e-014
    endloop
  endfacet
  facet normal  -0.000000e+000  -0.000000e+000 -1.000000e+000
    outer loop
      vertex  2.341332e+000  3.842937e+000 -1.421085e-014
      vertex  2.745920e+000  2.908595e+000 -1.421085e-014
      vertex  5.118667e-001  3.967114e+000 -1.421085e-014
    endloop
  endfacet
  facet normal  0.000000e+000  0.000000e+000 -1.000000e+000
    outer loop
      vertex  2.341332e+000  3.842937e+000 -1.421085e-014
      vertex  5.118667e-001  3.967114e+000 -1.421085e-014
      vertex  1.061846e-001  4.498747e+000 -1.421085e-014
    endloop
  endfacet
  facet normal  0.000000e+000  -0.000000e+000 -1.000000e+000
    outer loop
      vertex  1.061846e-001  4.498747e+000 -1.421085e-014
      vertex  5.118667e-001  3.967114e+000 -1.421085e-014
      vertex -1.917702e+000  3.510330e+000 -1.421085e-014
    endloop
  endfacet
  facet normal  0.000000e+000  0.000000e+000 -1.000000e+000
    outer loop
      vertex  1.061846e-001  4.498747e+000 -1.421085e-014
      vertex -1.917702e+000  3.510330e+000 -1.421085e-014
      vertex -2.157415e+000  3.949121e+000 -1.421085e-014
    endloop
  endfacet
  facet normal  0.000000e+000  -0.000000e+000 -9.999999e-001
    outer loop
      vertex -2.157415e+000  3.949121e+000 -1.421085e-014
      vertex -1.917702e+000  3.510330e+000 -1.421085e-014
      vertex -3.614774e+000  1.712720e+000 -1.421085e-014
    endloop
  endfacet
  facet normal  0.000000e+000  0.000000e+000 -1.000000e+000
    outer loop
      vertex -2.157415e+000  3.949121e+000 -1.421085e-014
      vertex -3.614774e+000  1.712720e+000 -1.421085e-014
      vertex -3.842937e+000  2.341332e+000 -1.421085e-014
    endloop
  endfacet
  facet normal  0.000000e+000  -0.000000e+000 -1.000000e+000
    outer loop
      vertex -3.842937e+000  2.341332e+000 -1.421085e-014
      vertex -3.614774e+000  1.712720e+000 -1.421085e-014
      vertex -3.931125e+000 -7.390915e-001 -1.421085e-014
    endloop
  endfacet
  facet normal  0.000000e+000  0.000000e+000 -1.000000e+000
    outer loop
      vertex -3.842937e+000  2.341332e+000 -1.421085e-014
      vertex -3.931125e+000 -7.390915e-001 -1.421085e-014
      vertex -4.498747e+000  1.061846e-001 -1.421085e-014
    endloop
  endfacet
  facet normal  0.000000e+000  0.000000e+000 -9.999999e-001
    outer loop
      vertex -4.498747e+000  1.061846e-001 -1.421085e-014
      vertex -3.931125e+000 -7.390915e-001 -1.421085e-014
      vertex -2.745920e+000 -2.908595e+000 -1.421085e-014
    endloop
  endfacet
  facet normal  0.000000e+000  0.000000e+000 -1.000000e+000
    outer loop
      vertex -4.498747e+000  1.061846e-001 -1.421085e-014
      vertex -2.745920e+000 -2.908595e+000 -1.421085e-014
      vertex -3.949121e+000 -2.157415e+000 -1.421085e-014
    endloop
  endfacet
  facet normal -7.781354e-001  6.268030e-001 -4.029127e-002
    outer loop
      vertex  4.797748e-001 -1.407698e-001  8.500000e+001
      vertex  3.614774e+000 -1.712720e+000 -1.421085e-014
      vertex  2.397128e-001 -4.387913e-001  8.500000e+001
    endloop
  endfacet
  facet normal -7.265918e-001  6.859542e-001 -3.913116e-002
    outer loop
      vertex  3.614774e+000 -1.712720e+000 -1.421085e-014
      vertex  1.917702e+000 -3.510330e+000 -1.421085e-014
      vertex  2.397128e-001 -4.387913e-001  8.500000e+001
    endloop
  endfacet
  facet normal  1.846314e-001 -9.820285e-001 -3.913116e-002
    outer loop
      vertex -1.917702e+000  3.510330e+000 -1.421085e-014
      vertex  5.118667e-001  3.967114e+000 -1.421085e-014
      vertex -2.397128e-001  4.387913e-001  8.500000e+001
    endloop
  endfacet
  facet normal  1.070081e-001 -9.934413e-001 -4.029125e-002
    outer loop
      vertex  5.118667e-001  3.967114e+000 -1.421085e-014
      vertex  1.407698e-001  4.797748e-001  8.500000e+001
      vertex -2.397128e-001  4.387913e-001  8.500000e+001
    endloop
  endfacet
  facet normal -4.278556e-001 -9.030089e-001 -3.891617e-002
    outer loop
      vertex  5.118667e-001  3.967114e+000 -1.421085e-014
      vertex  2.745920e+000  2.908595e+000 -1.421085e-014
      vertex  1.407698e-001  4.797748e-001  8.500000e+001
    endloop
  endfacet
  facet normal -8.769203e-001 -4.790637e-001 -3.884391e-002
    outer loop
      vertex  2.745920e+000  2.908595e+000 -1.421085e-014
      vertex  3.931125e+000  7.390915e-001 -1.421085e-014
      vertex  4.387913e-001  2.397128e-001  8.500000e+001
    endloop
  endfacet
  facet normal -6.267734e-001 -7.780988e-001 -4.144353e-002
    outer loop
      vertex  1.407698e-001  4.797748e-001  8.500000e+001
      vertex  2.745920e+000  2.908595e+000 -1.421085e-014
      vertex  4.387913e-001  2.397128e-001  8.500000e+001
    endloop
  endfacet
  facet normal -9.910271e-001  1.278697e-001 -3.891617e-002
    outer loop
      vertex  3.931125e+000  7.390915e-001 -1.421085e-014
      vertex  3.614774e+000 -1.712720e+000 -1.421085e-014
      vertex  4.797748e-001 -1.407698e-001  8.500000e+001
    endloop
  endfacet
  facet normal -9.933946e-001 -1.070025e-001 -4.144353e-002
    outer loop
      vertex  4.387913e-001  2.397128e-001  8.500000e+001
      vertex  3.931125e+000  7.390915e-001 -1.421085e-014
      vertex  4.797748e-001 -1.407698e-001  8.500000e+001
    endloop
  endfacet
  facet normal -2.357680e-001  9.709964e-001  3.974199e-002
    outer loop
      vertex -4.794255e-001  8.775826e-001  8.500000e+001
      vertex  1.061846e-001  4.498747e+000 -1.421085e-014
      vertex -2.157415e+000  3.949121e+000 -1.421085e-014
    endloop
  endfacet
  facet normal -1.070025e-001  9.933888e-001  4.158308e-002
    outer loop
      vertex -4.794255e-001  8.775826e-001  8.500000e+001
      vertex  2.815395e-001  9.595496e-001  8.500000e+001
      vertex  1.061846e-001  4.498747e+000 -1.421085e-014
    endloop
  endfacet
  facet normal  7.780942e-001 -6.267697e-001  4.158309e-002
    outer loop
      vertex  4.794255e-001 -8.775826e-001  8.500000e+001
      vertex  3.842937e+000 -2.341332e+000 -1.421085e-014
      vertex  9.595496e-001 -2.815395e-001  8.500000e+001
    endloop
  endfacet
  facet normal  6.896793e-001 -7.230237e-001  3.974200e-002
    outer loop
      vertex  4.794255e-001 -8.775826e-001  8.500000e+001
      vertex  2.157415e+000 -3.949121e+000 -1.421085e-014
      vertex  3.842937e+000 -2.341332e+000 -1.421085e-014
    endloop
  endfacet
  facet normal  2.813215e-001  9.588068e-001  3.934206e-002
    outer loop
      vertex  2.815395e-001  9.595496e-001  8.500000e+001
      vertex  2.341332e+000  3.842937e+000 -1.421085e-014
      vertex  1.061846e-001  4.498747e+000 -1.421085e-014
    endloop
  endfacet
  facet normal  7.230237e-001  6.896793e-001  3.974200e-002
    outer loop
      vertex  8.775826e-001  4.794255e-001  8.500000e+001
      vertex  3.949121e+000  2.157415e+000 -1.421085e-014
      vertex  2.341332e+000  3.842937e+000 -1.421085e-014
    endloop
  endfacet
  facet normal  6.267697e-001  7.780942e-001  4.158309e-002
    outer loop
      vertex  8.775826e-001  4.794255e-001  8.500000e+001
      vertex  2.341332e+000  3.842937e+000 -1.421085e-014
      vertex  2.815395e-001  9.595496e-001  8.500000e+001
    endloop
  endfacet
  facet normal  9.588068e-001 -2.813215e-001  3.934206e-002
    outer loop
      vertex  9.595496e-001 -2.815395e-001  8.500000e+001
      vertex  3.842937e+000 -2.341332e+000 -1.421085e-014
      vertex  4.498747e+000 -1.061846e-001 -1.421085e-014
    endloop
  endfacet
  facet normal  9.933888e-001  1.070029e-001  4.158308e-002
    outer loop
      vertex  9.595496e-001 -2.815395e-001  8.500000e+001
      vertex  4.498747e+000 -1.061846e-001 -1.421085e-014
      vertex  8.775826e-001  4.794255e-001  8.500000e+001
    endloop
  endfacet
  facet normal  9.709964e-001  2.357680e-001  3.974199e-002
    outer loop
      vertex  8.775826e-001  4.794255e-001  8.500000e+001
      vertex  4.498747e+000 -1.061846e-001 -1.421085e-014
      vertex  3.949121e+000  2.157415e+000 -1.421085e-014
    endloop
  endfacet
  facet normal  7.781354e-001 -6.268030e-001 -4.029127e-002
    outer loop
      vertex -4.797748e-001  1.407698e-001  8.500000e+001
      vertex -3.614774e+000  1.712720e+000 -1.421085e-014
      vertex -2.397128e-001  4.387913e-001  8.500000e+001
    endloop
  endfacet
  facet normal  7.265918e-001 -6.859542e-001 -3.913116e-002
    outer loop
      vertex -3.614774e+000  1.712720e+000 -1.421085e-014
      vertex -1.917702e+000  3.510330e+000 -1.421085e-014
      vertex -2.397128e-001  4.387913e-001  8.500000e+001
    endloop
  endfacet
  facet normal -1.846314e-001  9.820285e-001 -3.913116e-002
    outer loop
      vertex  1.917702e+000 -3.510330e+000 -1.421085e-014
      vertex -5.118667e-001 -3.967114e+000 -1.421085e-014
      vertex  2.397128e-001 -4.387913e-001  8.500000e+001
    endloop
  endfacet
  facet normal -1.070081e-001  9.934413e-001 -4.029125e-002
    outer loop
      vertex -5.118667e-001 -3.967114e+000 -1.421085e-014
      vertex -1.407698e-001 -4.797748e-001  8.500000e+001
      vertex  2.397128e-001 -4.387913e-001  8.500000e+001
    endloop
  endfacet
  facet normal  4.278556e-001  9.030089e-001 -3.891617e-002
    outer loop
      vertex -5.118667e-001 -3.967114e+000 -1.421085e-014
      vertex -2.745920e+000 -2.908595e+000 -1.421085e-014
      vertex -1.407698e-001 -4.797748e-001  8.500000e+001
    endloop
  endfacet
  facet normal  8.769203e-001  4.790637e-001 -3.884391e-002
    outer loop
      vertex -2.745920e+000 -2.908595e+000 -1.421085e-014
      vertex -3.931125e+000 -7.390915e-001 -1.421085e-014
      vertex -4.387913e-001 -2.397128e-001  8.500000e+001
    endloop
  endfacet
  facet normal  6.267734e-001  7.780988e-001 -4.144353e-002
    outer loop
      vertex -1.407698e-001 -4.797748e-001  8.500000e+001
      vertex -2.745920e+000 -2.908595e+000 -1.421085e-014
      vertex -4.387913e-001 -2.397128e-001  8.500000e+001
    endloop
  endfacet
  facet normal  9.910271e-001 -1.278697e-001 -3.891617e-002
    outer loop
      vertex -3.931125e+000 -7.390915e-001 -1.421085e-014
      vertex -3.614774e+000  1.712720e+000 -1.421085e-014
      vertex -4.797748e-001  1.407698e-001  8.500000e+001
    endloop
  endfacet
  facet normal  9.933946e-001  1.070025e-001 -4.144353e-002
    outer loop
      vertex -4.387913e-001 -2.397128e-001  8.500000e+001
      vertex -3.931125e+000 -7.390915e-001 -1.421085e-014
      vertex -4.797748e-001  1.407698e-001  8.500000e+001
    endloop
  endfacet
  facet normal  2.357680e-001 -9.709964e-001  3.974199e-002
    outer loop
      vertex  4.794255e-001 -8.775826e-001  8.500000e+001
      vertex -1.061846e-001 -4.498747e+000 -1.421085e-014
      vertex  2.157415e+000 -3.949121e+000 -1.421085e-014
    endloop
  endfacet
  facet normal  1.070025e-001 -9.933888e-001  4.158308e-002
    outer loop
      vertex  4.794255e-001 -8.775826e-001  8.500000e+001
      vertex -2.815395e-001 -9.595496e-001  8.500000e+001
      vertex -1.061846e-001 -4.498747e+000 -1.421085e-014
    endloop
  endfacet
  facet normal -7.780942e-001  6.267697e-001  4.158309e-002
    outer loop
      vertex -4.794255e-001  8.775826e-001  8.500000e+001
      vertex -3.842937e+000  2.341332e+000 -1.421085e-014
      vertex -9.595496e-001  2.815395e-001  8.500000e+001
    endloop
  endfacet
  facet normal -6.896793e-001  7.230237e-001  3.974200e-002
    outer loop
      vertex -4.794255e-001  8.775826e-001  8.500000e+001
      vertex -2.157415e+000  3.949121e+000 -1.421085e-014
      vertex -3.842937e+000  2.341332e+000 -1.421085e-014
    endloop
  endfacet
  facet normal -2.813215e-001 -9.588068e-001  3.934206e-002
    outer loop
      vertex -2.815395e-001 -9.595496e-001  8.500000e+001
      vertex -2.341332e+000 -3.842937e+000 -1.421085e-014
      vertex -1.061846e-001 -4.498747e+000 -1.421085e-014
    endloop
  endfacet
  facet normal -7.230237e-001 -6.896793e-001  3.974200e-002
    outer loop
      vertex -8.775826e-001 -4.794255e-001  8.500000e+001
      vertex -3.949121e+000 -2.157415e+000 -1.421085e-014
      vertex -2.341332e+000 -3.842937e+000 -1.421085e-014
    endloop
  endfacet
  facet normal -6.267697e-001 -7.780942e-001  4.158309e-002
    outer loop
      vertex -8.775826e-001 -4.794255e-001  8.500000e+001
      vertex -2.341332e+000 -3.842937e+000 -1.421085e-014
      vertex -2.815395e-001 -9.595496e-001  8.500000e+001
    endloop
  endfacet
  facet normal -9.588068e-001  2.813215e-001  3.934206e-002
    outer loop
      vertex -9.595496e-001  2.815395e-001  8.500000e+001
      vertex -3.842937e+000  2.341332e+000 -1.421085e-014
      vertex -4.498747e+000  1.061846e-001 -1.421085e-014
    endloop
  endfacet
  facet normal -9.933888e-001 -1.070029e-001  4.158308e-002
    outer loop
      vertex -9.595496e-001  2.815395e-001  8.500000e+001
      vertex -4.498747e+000  1.061846e-001 -1.421085e-014
      vertex -8.775826e-001 -4.794255e-001  8.500000e+001
    endloop
  endfacet
  facet normal -9.709964e-001 -2.357680e-001  3.974199e-002
    outer loop
      vertex -8.775826e-001 -4.794255e-001  8.500000e+001
      vertex -4.498747e+000  1.061846e-001 -1.421085e-014
      vertex -3.949121e+000 -2.157415e+000 -1.421085e-014
    endloop
  endfacet
endsolid CATIA STL
